<?xml version="1.0" encoding="UTF-8" standalone="no"?>
<svg
   width="501.39999"
   height="290.77023"
   viewBox="0 0 501.39999 290.77023"
   version="1.1"
   id="svg1"
>
  <defs
     id="defs1" />
  <g
     id="g1"
     transform="translate(-376.1,-259)">
    <path
       d="m 441.5,549.39 c -9.34,-2.33 -10.5,-4.56 -10.5,-20.14 0,-7.88 -0.4,-12.25 -1.2,-13.05 -0.93,-0.93 -0.32,-1.2 2.75,-1.2 h 3.95 v 13.47 c 0,12.54 0.15,13.63 2.19,15.67 2.95,2.95 11.71,3.74 16.12,1.46 4.81,-2.49 5.33,-4.39 5,-18.14 L 459.5,515 h 2.5 2.5 l -0.58,12.92 c -0.64,14.23 -1.57,16.81 -7.04,19.64 -3.22,1.67 -11.89,2.69 -15.38,1.83 z m 111.86,-0.34 c -11.92,-2.85 -17.82,-15.3 -12.09,-25.55 4.58,-8.21 18.62,-12.01 28.23,-7.64 5.32,2.42 7.16,4.64 5.51,6.63 -1.07,1.29 -1.51,1.14 -3.29,-1.12 -2.35,-2.99 -7.4,-5.37 -11.37,-5.37 -1.5,0 -4.63,0.93 -6.97,2.06 -7.41,3.58 -10.49,13.5 -6.53,20.96 4.87,9.15 17.43,10.83 25.25,3.38 2.17,-2.08 2.78,-2.25 3.75,-1.08 0.93,1.12 0.42,1.91 -2.59,3.96 -6.17,4.19 -12.82,5.45 -19.9,3.77 z m 55.14,0.07 c -9.36,-2.45 -13.77,-7.56 -14.27,-16.58 -0.4,-7.22 1.54,-11.04 7.7,-15.11 5.35,-3.54 15.11,-4.45 21.52,-2 4.86,1.86 10.15,7.14 11.16,11.14 1.07,4.29 -0.17,12 -2.46,15.22 -4.05,5.69 -15.9,9.36 -23.65,7.33 z m 14.72,-4.53 c 3.52,-2.3 5.78,-7.41 5.78,-13.04 0,-9.14 -5.67,-14.98 -14.55,-14.98 -8.82,0 -14.44,5.73 -14.45,14.73 -0.01,13.08 12.56,20.28 23.22,13.29 z m 100.12,4.51 C 714.33,546.8 709,540.66 709,532.59 c 0,-6.51 2.47,-11.22 7.94,-15.09 3.87,-2.74 4.93,-3 12.4,-3 6.81,0 8.78,0.39 11.91,2.33 3.64,2.26 4.73,4.45 2.81,5.63 -0.51,0.32 -2.03,-0.52 -3.38,-1.87 -3.54,-3.54 -10.06,-5.09 -15.08,-3.59 -10.88,3.26 -14.37,17.69 -6.25,25.82 2.94,2.93 4.38,3.58 8.86,3.95 3.49,0.29 6.64,-0.1 9.07,-1.11 3.61,-1.51 3.72,-1.71 3.72,-6.72 v -5.17 l -5,0.54 c -3.91,0.42 -5,0.23 -5,-0.89 0,-1.12 1.83,-1.42 8.61,-1.42 7.43,0 8.52,0.21 8,1.58 -0.34,0.87 -0.61,3.56 -0.61,5.98 0,4.27 -0.15,4.48 -4.93,6.91 -5.39,2.72 -13.75,3.9 -18.73,2.63 z m 130.16,0.03 c -8.47,-2.21 -9.73,-4.74 -10.43,-20.88 L 842.5,515 h 3.5 3.5 l -0.31,13.02 -0.3,13.02 2.98,2.98 c 2.51,2.51 3.76,2.98 7.99,2.98 11.13,0 13.45,-2.96 13.6,-17.34 0.07,-5.59 -0.23,-11.17 -0.65,-12.41 -0.67,-1.97 -0.42,-2.25 1.96,-2.25 h 2.73 l -0.53,12.83 c -0.58,14.18 -1.54,16.86 -7.09,19.73 -3.63,1.88 -12.09,2.69 -16.38,1.57 z m -461.67,-7.16 0.4,-7.03 -5.58,-7.29 c -3.07,-4.01 -6.7,-8.49 -8.07,-9.97 L 376.1,515 h 4.34 c 2.83,0 4.54,0.5 4.89,1.42 0.84,2.2 9.89,13.58 10.8,13.58 0.95,0 10.87,-12.91 10.87,-14.15 0,-0.47 1.15,-0.85 2.55,-0.85 2.39,0 2.08,0.62 -5.11,9.96 l -7.67,9.95 0.4,7.05 0.4,7.04 h -3.07 -3.07 z m 92.97,5.83 c 0.82,-0.82 1.2,-5.81 1.2,-15.95 0,-12.99 -0.21,-14.87 -1.75,-15.77 -1.4,-0.82 -0.96,-1.03 2.24,-1.05 3.78,-0.03 4.63,0.62 16.79,12.72 l 12.81,12.75 -0.29,-12.75 c -0.29,-12.19 -0.21,-12.75 1.7,-12.75 1.93,0 1.99,0.57 1.7,17 -0.21,12.32 -0.62,17 -1.48,17 -0.66,0 -7.41,-6.19 -15,-13.75 l -13.81,-13.75 0.3,13.75 0.29,13.75 h -2.95 c -2.29,0 -2.68,-0.27 -1.75,-1.2 z m 170.28,-2.55 c 0.48,-2.06 0.88,-8.89 0.9,-15.17 0.02,-9.25 -0.29,-11.77 -1.63,-13.25 -1.58,-1.74 -1.47,-1.83 2.44,-1.83 2.73,0 4.54,0.58 5.42,1.75 0.73,0.96 6.4,6.7 12.62,12.75 l 11.29,11 -0.31,-12.75 c -0.3,-12.19 -0.22,-12.75 1.69,-12.75 1.93,0 1.99,0.57 1.7,17 -0.21,12.54 -0.61,17 -1.51,17 -0.67,0 -7.28,-6.08 -14.69,-13.5 -7.41,-7.42 -13.76,-13.5 -14.12,-13.5 -1.04,0 -1.02,20.2 0.03,23.75 0.91,3.12 0.84,3.25 -1.87,3.25 -2.76,0 -2.81,-0.1 -1.96,-3.75 z m 148.96,-3.5 0.57,-7.25 -7.85,-9.75 -7.86,-9.75 3.8,0.06 c 3.55,0.06 4.21,0.6 9.99,8.09 l 6.19,8.04 5.81,-8.03 c 4.45,-6.16 6.38,-8.05 8.25,-8.1 l 2.43,-0.06 -2.5,2.75 c -1.38,1.51 -4.88,5.82 -7.77,9.58 l -5.25,6.82 0.32,7.43 0.33,7.42 h -3.51 -3.51 z M 608.91,451.58 c -0.23,-0.24 -0.39,-17.05 -0.35,-37.36 l 0.07,-36.93 12.91,-14.4 c 7.1,-7.91 18.99,-21.17 26.43,-29.45 15.1,-16.8 40.16,-44.85 56,-62.69 L 714.41,259 h 11.3 c 6.21,0 11.29,0.24 11.29,0.53 0,0.29 -14.06,16.18 -31.25,35.29 -17.19,19.12 -41.04,45.66 -53,58.99 L 631,378.02 V 415.01 452 h -10.83 c -5.96,0 -11.03,-0.19 -11.26,-0.42 z M 561.73,387.4 c -2.4,-2.4 13.28,-24.83 34.03,-48.68 l 9.38,-10.78 -11.88,-13.72 c -6.53,-7.55 -17.45,-20.24 -24.27,-28.22 -6.81,-7.98 -14.55,-16.9 -17.19,-19.83 -2.64,-2.93 -4.8,-5.74 -4.8,-6.25 0,-0.51 5.74,-0.92 12.94,-0.92 h 12.94 l 11.81,13.65 c 15.81,18.27 19.66,22.73 27.31,31.64 3.58,4.16 6.8,7.49 7.16,7.39 0.36,-0.1 11.07,-11.99 23.81,-26.43 L 666.12,259 h 11.44 c 6.29,0 11.44,0.24 11.44,0.54 0,0.29 -8.21,9.65 -18.25,20.8 -10.04,11.14 -32.87,36.65 -50.75,56.68 -41.06,46.01 -42.25,47.22 -48.43,49.31 -5.07,1.72 -8.78,2.12 -9.84,1.07 z"
       fill="currentColor"
       id="path1" />
  </g>
</svg>
