<?xml version="1.0" encoding="UTF-8" standalone="no"?>
<svg
   width="190"
   height="193"
   viewBox="0 0 190 193"
   version="1.1"
   id="svg1"
   xmlns="http://www.w3.org/2000/svg"
>
  <defs
     id="defs1" />
  <g
     id="g1"
     transform="translate(-547,-259)">
    <path
       d="m 608.91,451.58 c -0.23,-0.24 -0.39,-17.05 -0.35,-37.36 l 0.07,-36.93 12.91,-14.4 c 7.1,-7.91 18.99,-21.17 26.43,-29.45 15.1,-16.8 40.16,-44.85 56,-62.69 L 714.41,259 h 11.3 c 6.21,0 11.29,0.24 11.29,0.53 0,0.29 -14.06,16.18 -31.25,35.29 -17.19,19.12 -41.04,45.66 -53,58.99 L 631,378.02 V 415.01 452 h -10.83 c -5.96,0 -11.03,-0.19 -11.26,-0.42 z M 561.73,387.4 c -2.4,-2.4 13.28,-24.83 34.03,-48.68 l 9.38,-10.78 -11.88,-13.72 c -6.53,-7.55 -17.45,-20.24 -24.27,-28.22 -6.81,-7.98 -14.55,-16.9 -17.19,-19.83 -2.64,-2.93 -4.8,-5.74 -4.8,-6.25 0,-0.51 5.74,-0.92 12.94,-0.92 h 12.94 l 11.81,13.65 c 15.81,18.27 19.66,22.73 27.31,31.64 3.58,4.16 6.8,7.49 7.16,7.39 0.36,-0.1 11.07,-11.99 23.81,-26.43 L 666.12,259 h 11.44 c 6.29,0 11.44,0.24 11.44,0.54 0,0.29 -8.21,9.65 -18.25,20.8 -10.04,11.14 -32.87,36.65 -50.75,56.68 -41.06,46.01 -42.25,47.22 -48.43,49.31 -5.07,1.72 -8.78,2.12 -9.84,1.07 z"
       fill="currentColor"
       id="path1"
    />
  </g>
</svg>
